<!-- This is a placeholder SVG for about section -->
<svg xmlns="http://www.w3.org/2000/svg" width="800" height="600" viewBox="0 0 800 600">
  <defs>
    <linearGradient id="grad5" x1="0%" y1="0%" x2="100%" y2="100%">
      <stop offset="0%" style="stop-color:#e6b980;stop-opacity:1" />
      <stop offset="100%" style="stop-color:#c89f66;stop-opacity:1" />
    </linearGradient>
  </defs>
  <rect width="800" height="600" fill="url(#grad5)"/>
  <circle cx="400" cy="250" r="100" fill="white" opacity="0.9"/>
  <path d="M 400 200 Q 380 190 370 200 Q 360 210 360 230 L 360 270 Q 370 290 400 300 Q 430 290 440 270 L 440 230 Q 440 210 430 200 Q 420 190 400 200 Z" fill="white"/>
  <circle cx="400" cy="230" r="15" fill="#FFD700" stroke="#DAA520" stroke-width="2"/>
  <text x="400" y="380" font-family="Arial, sans-serif" font-size="48" fill="white" text-anchor="middle" font-weight="bold">Beau Teeth Ful</text>
  <text x="400" y="430" font-family="Arial, sans-serif" font-size="28" fill="white" text-anchor="middle">Expert Cosmetic Dentistry</text>
  <text x="400" y="470" font-family="Arial, sans-serif" font-size="24" fill="white" text-anchor="middle" opacity="0.9">Manurewa, Auckland</text>
  <rect x="250" y="500" width="120" height="50" rx="25" fill="white" opacity="0.2"/>
  <rect x="430" y="500" width="120" height="50" rx="25" fill="white" opacity="0.2"/>
  <text x="310" y="532" font-family="Arial, sans-serif" font-size="18" fill="white" text-anchor="middle" font-weight="bold">Whitening</text>
  <text x="490" y="532" font-family="Arial, sans-serif" font-size="18" fill="white" text-anchor="middle" font-weight="bold">Tooth Gems</text>
</svg>
