<!-- This is a placeholder SVG for teeth whitening images -->
<svg xmlns="http://www.w3.org/2000/svg" width="800" height="600" viewBox="0 0 800 600">
  <defs>
    <linearGradient id="grad1" x1="0%" y1="0%" x2="100%" y2="100%">
      <stop offset="0%" style="stop-color:#e6b980;stop-opacity:1" />
      <stop offset="100%" style="stop-color:#c89f66;stop-opacity:1" />
    </linearGradient>
  </defs>
  <rect width="800" height="600" fill="#f8f8f8"/>
  <circle cx="400" cy="300" r="150" fill="white" stroke="url(#grad1)" stroke-width="8"/>
  <path d="M 320 300 Q 320 260 340 240 L 360 240 Q 380 260 380 300 Q 380 340 360 360 L 340 360 Q 320 340 320 300 Z" fill="white" stroke="#d4d4d4" stroke-width="2"/>
  <path d="M 380 300 Q 380 260 400 240 L 420 240 Q 440 260 440 300 Q 440 340 420 360 L 400 360 Q 380 340 380 300 Z" fill="white" stroke="#d4d4d4" stroke-width="2"/>
  <path d="M 440 300 Q 440 260 460 240 L 480 240 Q 500 260 500 300 Q 500 340 480 360 L 460 360 Q 440 340 440 300 Z" fill="white" stroke="#d4d4d4" stroke-width="2"/>
  <text x="400" y="480" font-family="Arial, sans-serif" font-size="36" fill="url(#grad1)" text-anchor="middle" font-weight="bold">Teeth Whitening</text>
  <text x="400" y="520" font-family="Arial, sans-serif" font-size="24" fill="#666" text-anchor="middle">Professional Results</text>
</svg>
